<svg width="23" height="23" viewBox="0 0 23 23" fill="none" xmlns="http://www.w3.org/2000/svg">
<path d="M11.5 0C14.1179 0 16.3952 1.45821 17.5645 3.60645C20.6715 4.27813 22.9999 7.04157 23 10.3496C23 11.8848 22.4974 13.302 21.6494 14.4482C21.7794 14.9775 21.8506 15.5303 21.8506 16.0996C21.8506 19.9104 18.761 23 14.9502 23C13.6929 23 12.5152 22.6617 11.5 22.0742C10.4848 22.6618 9.30709 23 8.0498 23C4.23904 23 1.14941 19.9104 1.14941 16.0996C1.14943 15.5303 1.21961 14.9774 1.34961 14.4482C0.501856 13.3021 0 11.8846 0 10.3496C8.74708e-05 7.0415 2.32838 4.27805 5.43555 3.60645C6.60467 1.45814 8.88211 0.000151721 11.5 0Z" fill="#BE81F9"/>
<path d="M16 8.25L10.5 14.2083L8 11.5" stroke="white" stroke-width="2" stroke-linecap="round" stroke-linejoin="round"/>
</svg>
