<svg width="20" height="20" viewBox="0 0 20 20" fill="none" xmlns="http://www.w3.org/2000/svg">
<path d="M10 0C12.2767 0 14.2568 1.26832 15.2734 3.13672C17.9753 3.72078 20 6.12335 20 9C20 10.3349 19.5625 11.5668 18.8252 12.5635C18.9383 13.0239 19 13.5047 19 14C19 17.3137 16.3137 20 13 20C11.9068 20 10.8827 19.7061 10 19.1953C9.11728 19.7061 8.09322 20 7 20C3.68629 20 1 17.3137 1 14C1 13.5048 1.06072 13.0238 1.17383 12.5635C0.436761 11.5669 0 10.3347 0 9C0 6.12368 2.02417 3.72113 4.72559 3.13672C5.74214 1.2681 7.72311 0 10 0Z" fill="#D1D5DB"/>
</svg>
