<svg width="33" height="20" viewBox="0 0 33 20" fill="none" xmlns="http://www.w3.org/2000/svg">
<rect x="0.5" y="0.5" width="32" height="19" rx="5.5" fill="#F3F4F6"/>
<rect x="0.5" y="0.5" width="32" height="19" rx="5.5" stroke="#E5E7EB"/>
<path d="M16.1367 9.3125V10.3672H11.9414V11.2461C13.8398 11.375 14.9531 12.0312 14.9648 13.1328C14.9531 14.3516 13.582 15.0312 11.2969 15.0312C8.98828 15.0312 7.60547 14.3516 7.60547 13.1328C7.60547 12.0312 8.73047 11.3691 10.6523 11.2461V10.3672H6.48047V9.3125H16.1367ZM11.2969 12.2305C9.75 12.2422 8.91797 12.5469 8.92969 13.1328C8.91797 13.7188 9.75 14.0352 11.2969 14.0352C12.8086 14.0352 13.6523 13.7188 13.6641 13.1328C13.6523 12.5469 12.8086 12.2422 11.2969 12.2305ZM15.2695 4.91797V5.96094H12.2227C12.4277 6.83398 13.6934 7.61914 15.6797 7.80078L15.2227 8.83203C13.3008 8.63867 11.8711 7.87109 11.2969 6.79297C10.7227 7.86523 9.31641 8.63867 7.39453 8.83203L6.94922 7.80078C8.89453 7.61914 10.1602 6.82227 10.3828 5.96094H7.35938V4.91797H15.2695ZM26.5312 12.6875V13.7539H16.8516V12.6875H19.0898V10.0039C18.2461 9.52344 17.7363 8.76758 17.7422 7.82422C17.7305 6.13672 19.3945 5.02344 21.668 5.02344C23.9531 5.02344 25.6172 6.13672 25.6172 7.82422C25.6172 8.75 25.125 9.49414 24.3047 9.98047V12.6875H26.5312ZM21.668 6.05469C20.0859 6.05469 19.0078 6.72266 19.0195 7.82422C19.0078 8.91406 20.0859 9.59375 21.668 9.59375C23.25 9.59375 24.3398 8.91406 24.3398 7.82422C24.3398 6.72266 23.25 6.05469 21.668 6.05469ZM20.3789 12.6875H22.9805V10.4727C22.5762 10.5664 22.1367 10.6133 21.668 10.6133C21.2109 10.6133 20.7773 10.5664 20.3789 10.4844V12.6875Z" fill="#6366F1"/>
</svg>
