<svg width="16" height="16" viewBox="0 0 16 16" fill="none" xmlns="http://www.w3.org/2000/svg">
<path d="M14.2733 7.72016L8.27325 1.72016C8.02326 1.47222 7.68535 1.33322 7.33325 1.3335H2.66659C2.31296 1.3335 1.97383 1.47397 1.72378 1.72402C1.47373 1.97407 1.33325 2.31321 1.33325 2.66683V7.3335C1.33311 7.50944 1.3678 7.68367 1.4353 7.84614C1.50281 8.00862 1.60181 8.15613 1.72659 8.28016L7.72659 14.2802C7.97657 14.5281 8.31449 14.6671 8.66659 14.6668C9.01964 14.6653 9.35769 14.5239 9.60659 14.2735L14.2733 9.60683C14.5236 9.35793 14.6651 9.01988 14.6666 8.66683C14.6667 8.49089 14.632 8.31666 14.5645 8.15419C14.497 7.99171 14.398 7.8442 14.2733 7.72016ZM8.66659 13.3335L2.66659 7.3335V2.66683H7.33325L13.3333 8.66683M4.33325 3.3335C4.53103 3.3335 4.72437 3.39215 4.88882 3.50203C5.05327 3.61191 5.18144 3.76809 5.25713 3.95081C5.33282 4.13354 5.35262 4.33461 5.31404 4.52859C5.27545 4.72257 5.18021 4.90075 5.04036 5.0406C4.90051 5.18046 4.72232 5.2757 4.52834 5.31428C4.33436 5.35287 4.1333 5.33306 3.95057 5.25738C3.76784 5.18169 3.61166 5.05352 3.50178 4.88907C3.3919 4.72462 3.33325 4.53128 3.33325 4.3335C3.33325 4.06828 3.43861 3.81393 3.62615 3.62639C3.81368 3.43885 4.06804 3.3335 4.33325 3.3335Z" fill="#6B7280"/>
</svg>
