<svg width="16" height="16" viewBox="0 0 16 16" fill="none" xmlns="http://www.w3.org/2000/svg">
<path d="M5.86667 13.466C5.69769 13.6352 5.49703 13.7694 5.27614 13.8611C5.05525 13.9527 4.81847 13.9999 4.57933 14H2V11.4373C2 10.9546 2.192 10.4913 2.53333 10.15M5.86667 13.466L2.53333 10.15M5.86667 13.466L12.516 6.81397M2.53333 10.15L9.18933 3.48664L10.14 2.53464C10.3092 2.36521 10.5101 2.23079 10.7312 2.13905C10.9524 2.04731 11.1894 2.00006 11.4289 2C11.6683 1.99994 11.9054 2.04707 12.1266 2.13869C12.3478 2.23031 12.5487 2.36463 12.718 2.53397L13.4687 3.2853C13.8103 3.62699 14.0023 4.09042 14.0023 4.57364C14.0023 5.05685 13.8103 5.52028 13.4687 5.86197L12.516 6.81397M12.516 6.81397L9.18867 3.48664" stroke="#6B7280" stroke-width="1.25" stroke-linecap="round" stroke-linejoin="round"/>
</svg>
